<svg width="26" height="25" viewBox="0 0 26 25" fill="none" xmlns="http://www.w3.org/2000/svg">
<path fill-rule="evenodd" clip-rule="evenodd" d="M25.2308 11.9726C25.2308 11.181 24.5712 10.5214 23.7797 10.5214C23.4828 10.5214 23.219 10.6203 22.9881 10.7522L16.8865 14.1493H13.1266C12.7638 14.1163 12.434 13.9185 12.2361 13.5886C12.1042 13.3908 12.0712 13.1599 12.0712 12.962C12.0712 12.4013 12.467 11.9066 12.9947 11.7747H16.5897C17.3812 11.7747 18.0409 11.115 18.0409 10.3235C18.0409 10.0266 17.9419 9.72981 17.777 9.49894C17.5132 9.13614 17.0844 8.90527 16.6227 8.90527H7.45382V8.93825C7.02506 8.93825 6.62928 9.10316 6.33245 9.36701L2.24274 13.0939L0 15.1388V25.0002L2.20976 23.1203L8.47624 17.8433C8.93798 17.3815 9.59761 17.0847 10.2902 17.0847H17.6121L24.3733 13.3248V13.2918C24.868 13.0609 25.2308 12.5662 25.2308 11.9726Z" fill="#F96302"/>
<path fill-rule="evenodd" clip-rule="evenodd" d="M10.6194 6.76121C10.4875 6.46437 10.4875 6.16754 10.4875 5.93667H10.7843H11.345H11.6418C11.6418 6.43139 11.6748 6.46437 12.2025 6.46437C12.4334 6.46437 12.5983 6.43139 12.6643 6.33245C12.7632 6.2335 12.7962 6.06859 12.7962 6.00263C12.7962 5.96965 12.7962 5.96965 12.7962 5.93667C12.7962 5.77176 12.7962 5.57387 12.1036 5.44195C11.345 5.31002 10.9822 4.98021 10.7843 4.71635C10.4875 4.32058 10.4875 3.95778 10.5205 3.79287C10.5205 3.33113 10.6854 2.96833 10.9822 2.6715C11.1801 2.50659 11.378 2.40765 11.6088 2.34169V1.71504H12.7962V2.3087C13.06 2.37467 13.2909 2.50659 13.4888 2.70448C13.8846 3.10026 13.9176 3.59498 13.8846 3.79287C13.8846 3.79287 13.8846 3.85883 13.8846 3.89182H12.7632V3.79287V3.75989C12.7632 3.69393 12.7632 3.562 12.6643 3.46306C12.5653 3.36411 12.4334 3.33113 12.2025 3.33113H12.1695C12.0376 3.33113 11.8397 3.36411 11.7078 3.46306C11.6748 3.49604 11.6088 3.59498 11.6088 3.79287V3.85883V3.89182C11.6088 3.9248 11.6088 4.22163 12.2685 4.35356C13.8846 4.65039 13.8846 5.60685 13.8846 5.90369V5.93667C13.8846 6.16754 13.8516 6.46437 13.6867 6.72822H18.1062C18.1392 6.46437 18.1722 6.2335 18.1722 5.96965C18.1722 4.71635 17.7764 3.52902 17.0838 2.50659C15.9624 0.956463 14.1484 0 12.2355 0C8.97033 0 6.29883 2.6715 6.29883 5.93667C6.29883 6.20052 6.33181 6.46437 6.36479 6.69524H10.6194V6.76121Z" fill="#F96302"/>
</svg>
